<?xml version="1.0" encoding="UTF-8"?>
<svg id="Layer_1" xmlns="http://www.w3.org/2000/svg" version="1.1" viewBox="0 0 743.2 1121.2">
  <!-- Generator: Adobe Illustrator 30.2.1, SVG Export Plug-In . SVG Version: 2.1.1 Build 1)  -->
  <path d="M431.4,0h1c4.6,14.1,5.9,23.2,11.2,38.8,8,23.6,37.8,20.6,57.9,30.1l-37.2,10.2c-10.3,2.8-18,10.2-21.2,20.5-3.3,10.3-5.5,20.6-7.8,31.3s-1.1,5.5-3.9,7.8l-9.4-36.1c-3.2-12.3-10.8-20.7-23.5-23.9l-31.3-7.9c-.8-.2-2.6-2-2.2-2.4s1.8-1.2,2.5-1.4c11.9-3,23.6-6.1,35.1-9.9s14.8-8.1,17.3-16.9L431.4,0ZM111.4,920.6c1.2,6.8,5.5,12.4,11.2,16.8,12.1,9.4,27.1,29.2,18,44.3s-7.8,28,.7,39.8,16.5,14.2,27.2,16.7c4.7,1.1,8.4,3.2,11.2,7,17.6,23.9,39.9,42.4,66.4,55.5,23.4,11.6,47.6,18.7,73.8,20,11,.5,22.1,1.1,33-.1,42.7-4.8,60-15.4,96.7-34.5s8.2-5.2,11.7-4.9c9.7.7,18,3.1,27.4,1.4,22.8-4.2,37.5-25.2,35.4-48.4-.7-7.7-.1-14.6,4.1-21.3,7-11,14.2-22.7,25.3-30.4s32.5-8.4,40.8-27.4c7.9-18-7.8-27.8,3.5-48.7l9.4-17.4c4.1-7.6,10.1-12.4,18.1-15.7,14.2-5.8,25.4-16.8,29.3-31.7,3-11.5,1.4-23.6-5.6-33-5.1-6.9-5.4-13.9-3.1-21.9,8.8-30.5,26.1-27.3,35-52.9,4.3-12.3,3.9-24.6-2-36.3-2.5-5-2.9-10.6-1.6-16.3l20.7-87.8c12.8-54.4,14.4-34.6,33.7-62.5s5.4-12.6,5.9-19.6c1.9-30.6-17.5-29.2-15.3-54.1l1.5-16.4c.7-8,4.5-15.2,9.4-21.5,12.8-16.6,13.8-38.4,1.2-55.2-7.4-9.9-10.7-14.5-11.4-25.9-1.8-26.9-5.6-52.7-11.9-78.8-4.1-17,7.1-22.2,6.7-39.8-.7-26.1-25.9-30.9-31-41.6l-18.2-38c-5.6-11.7-12.9-21.8-20.7-32.1-14.8-19.7-32.3-36-53-49.1-8.1-5.1-16.1-9.5-25.5-11.3s-16.6,2.6-20.1,10.4c-3.1,7-4.2,14.5-3.5,22.2.9,10.9,2.3,21.2,4,32,1.6,10.2,6.1,37.7.8,45.2-6.6,9.5-20.6,16.8-10.1,27.1s5.5,7.8,3.2,11.3c-4.5,6.7-16.6,9.2-17.7,20.5-1.4,14.1,14.2,17.5,11.9,26.6s-14.7,6.5-16.4,16.1,1.5,7.8,4.8,10.9,5.5,9.8,1.1,13.4c-10.3,8.1-29.9,1.5-33.8,17.2s1.7,19.6,9,26.2,4.2,5.7,2.9,8.9c-2.7,6.9-11.9,5.2-15.5,11.1s-2.7,9-.5,12.1l8.4,12.2c3.5,5,.9,11.3-2.2,15.1-8.9,10.7-18.7-1.8-33,6.1-8,4.4-10.7,13.8-5.2,21.6l8.7,12.3c1.7,2.5,2.1,7.1.4,9.6-3.7,5.6-12.7,1-15.8,8.2-2.7,6.3,7.1,11.1,4.9,18.3s-12.5.9-21.9,1.9-10.6,6.6-9.4,13c1.8,9.5,8.4,16.3,4.8,20-2.3,2.5-12.9.5-16.6,4.6-6,6.7,6.9,16.8,2.9,21.2s-6.7,1.3-9.2,2.2c-3.9,1.3-4.9,7.4-3.5,11.2l4,11.3c-1.1,4.8-4.4,9.4-6.8,13.8-11.2,20.3-31.2,1.2-44.1,27.9s-8.4,15.1-13.2,22.8c-18.7,30.2-48.1,51.3-82.4,60.3-16.9,4.4-33.3,6.7-50.7,8.4-22.7,2.1-49.4,5.6-69,17.9-18.6,11.6-30.3,30.8-34.6,52.2-2,9.8-1.1,19-2.5,29s-22.2,16.5-20.6,42.5c.8,13.7,7.1,25,18.9,32.8,14.5,9.6,23.6,28.4,16.3,45.7s-7.7,12.1-6.3,20.1ZM665.8,453.3c-2.5-.4-6.2-3.5-6.9-6.8-1.3-6.4-2.1-26.2,5.4-29s5.7-.1,7.3,1.1c7.4,5.5,12.9,21.4,3.7,31.3s-6.5,3.9-9.5,3.5ZM660.1,540.7c-6.5-4-2.8-17,2.6-19.8s7.1.6,8.8,3.5c2.8,4.5,2.6,11-1.5,15.1-2.8,2.7-7.2,2.9-10,1.2ZM623.8,599.5c-1.7-3-4.1-7.6-1-10s9.6-1,12.5,1.8,5.8,9,2.3,12.8-11.3-.3-13.8-4.7ZM575,758.1c5-3.5,10.3-1.9,14.4,1.2s5,8.5,4.1,13.7c-1.3,7.7-6,13.3-15.3,13.6-3.2-7.9-11.3-22.8-3.3-28.5ZM185.8,803.7c-7.2-3.9-11-13.7-8.6-21.4s13.4-14.2,20.1-11.6,3.1,19.8.7,26.8-7.3,8.9-12.3,6.2ZM507.3,813c-3.5-.9-7.4-3.3-6.4-7.9s4.9-6.9,8.1-8,9-.8,11.9,2.5-3.8,16-13.6,13.4ZM528.7,899.2c-4,0-9.2-2.2-9.6-7.4-.7-7.7,10-9.5,11.4-30.7s5.6-14.8,13.1-15.5,10.9,5,13.8,10.2c5,8.7,4.6,18.4-3.3,25.3-4.4,3.9-10.3,7-16,10.2-2.1,4.4-5.2,7.9-9.3,7.9ZM164.8,867c-6.2.3-9.5-6.2-8.5-11.7s1.7-4.8,3.1-6.2c5.4-5.3,14.1,3.2,18.7,8.2-2.3,5.9-8,9.5-13.3,9.7ZM452.1,899.1c-2-.7-5.3-3.6-5.2-6.1.2-8.5,9.5-18.7,16.9-15s5,4.3,4.4,6.6c-1.7,6.7-8.1,17.4-16.1,14.5ZM190.3,925.2c-5.3-3.6-5.8-10.4-5-16.6s3.7-10.7,9.4-9.6,22.2,6,22.6,13.6-14.4,21.1-27.1,12.6ZM260.9,925.6c6.2-3.3,14.4-2,18.5,3.2s2.3,6.3,1.2,8.8-4.8,4-8.3,3c-7.4-2.2-15.8-12.7-11.4-15.1ZM458.8,981.9c-12.2-11.5,9.9-32.9,23.6-38.4s15,.5,18.9,7.4c2.7,4.8,5.6,10.1,2.2,15.8-1.6,2.8-6.4,5.5-10.2,6.7-17.9,5.6-26.5,16.2-34.6,8.6ZM229,1000c-3.3,1.1-6.6-.3-8.2-4.2s-1.7-14.7,3.9-17.2c5.6.4,8.4,8.5,8.4,13.3s-.8,7-4.1,8.1ZM404.5,1039.3c-3.3,0-8.1-2.8-9.6-5.3s-3.6-8.7-1.2-11.7l9.4-12c1.5-1.9,4.1-2.9,6.9-2.6s4.2,2.9,4.8,5.8c1.2,5.4-.5,10.4-2.1,16.2s-2.4,9.5-8.2,9.6ZM317,556.6c-8.2-8-16.4-15.4-23.5-24.7s4.4-18.6-5.9-25.1-8-3.2-12.1-3.6c-10-1-16.9-9.1-14.7-19.2,2.7-12.3,4.9-29.8-9.2-36.7-12.9-6.3-23.2,7.6-34.6-7.5-14.6-19.4,4-30.7-1.2-44.7s-13.8-15.2-23.7-15.5c-8-.2-12.6-5-15.2-11.8-7.3-18.9,6.2-22.2,2.1-33.9-1.8-5.1-6.5-8.1-11.3-10.1-8-3.4-14.4-11.1-12.2-20.3,1.7-7.5,13.8-16.1,8-31.2-5.6-14.7-20.4-10.3-24.1-22.5-1.7-5.6-.2-9.7,3.3-14,4.4-5.3,4.5-12.3-.2-17.6-10.4-11.7-10.4-11.6-11.9-29.2l-3.9-45.8c-.7-7.8-5.7-15.5-13.2-18.1s-14.8,1.2-20.3,6.4c-43.7,41.6-62.3,98.9-72.1,157.1s-2.6,15.3-5.1,22.9-6.7,8.7-9.9,12.8c-5.6,6.8-7.2,16.3-5.5,24.8,3.3,16.5,13,22.6,13.5,31.8l2.5,43.2c.4,6.3-.9,11.2-4.5,16.1-6.4,8.8-6.2,19.8-.2,28.9s6.7,6.6,9.6,10.4c4.9,6.4,7.1,16.4,5,24.3s-6,10.5-8,16c-5.3,14.7-1.9,31.3,9.9,41.9s12.9,8.4,18.2,13.7c4.6,8.5,8.2,17.7,12,26.8,7.5,17.7-8.6,28.6,2.2,44.9s11,8,18.2,10.2c6.3,6.1,10.1,15.9,14.5,23.7l8.5,15c19.5-23.2,50.9-37.4,79.9-40.5l38.4-4.1c18-1.9,35.2-6.2,51.6-13.9,26.6-12.5,48.5-39.2,60.3-66.2l-15.2-14.7ZM51.1,416.2c-2.2-5.1,1.6-13.9,6.4-14.5s6.1,1.8,6.9,4.9c1.2,5-.7,11.5-6.5,13.9-2.5,1-6-2.4-6.8-4.3ZM71.1,489c-3-5.3-2.4-12.4.3-17.3s6.7-6.1,9.2-3.7c4.5,4.2,17.5,21.4,11.7,25.8s-17.4,1.8-21.2-4.8ZM126,604.4c-1.7,1.7-4.8,2.3-8,1.7-14.3-2.9-23.8-16.9-19-30.7s7-9.1,11.6-6.1,5.6,7.2,8,10.8c4.5,6.7,13.9,18,7.4,24.3ZM334,371.4l13.4-51.6c2.9-11.1,5.8-21.5,10-32.2,10.7-27.2,36.5-34.8,62.2-41.3l51-13c.7-.2,2.1-1.3,2.7-1.8s-.5-2.8-1.6-3.1l-67.8-17.5c-14-3.6-26.6-10.2-36.2-20.8-8.7-9.7-13.7-22.3-17-34.9l-15.6-59.5c-.2-.9-1.3-2.2-2-2.5s-2.8,1.3-3,2.1l-7.8,29.6-9.3,34.9c-1.7,6.5-4.5,12.6-7.3,18.7-11.7,25.8-38.4,31.8-64.2,38.5l-46.6,12.1c-.7.2-2.4,1.9-2,2.4s1.4,1.6,2.1,1.8l50.3,12.9c49.2,12.6,58.2,20.7,70.7,68.6l13.6,52.5c.6,2.1,2.2,3.7,4.4,4.3Z"/>
</svg>