<?xml version="1.0" encoding="utf-8"?>
<!-- Generator: Adobe Illustrator 28.1.0, SVG Export Plug-In . SVG Version: 6.00 Build 0)  -->
<svg version="1.1" id="Layer_1" xmlns="http://www.w3.org/2000/svg" xmlns:xlink="http://www.w3.org/1999/xlink" x="0px" y="0px"
	 viewBox="-3.79 25.2 152.6 92.7" style="enable-background:new -3.79 25.2 152.6 92.7;" xml:space="preserve">
<path fill="none" stroke="black" stroke-width="4" d="M117.39,32.98c-9.69-2.52-19.49-0.83-27.44,3.9c-3.75-2.95-8.16-5.19-13.09-6.47C60.69,26.2,44.2,33.7,36.53,47.6
	c-1.29-0.57-2.64-1.06-4.06-1.42c-13.83-3.6-27.98,4.59-31.62,18.28c-3.63,13.69,4.63,27.71,18.46,31.3
	c3.06,0.8,6.14,1.01,9.12,0.72c2.97,7.21,9.21,12.99,17.4,15.12c6.65,1.73,13.37,0.73,18.96-2.29c2.7,2.09,5.86,3.69,9.38,4.6
	c11.5,2.99,23.22-2.17,28.94-11.87c17.76,2.62,35.04-8.36,39.71-25.95C147.82,57.23,136.44,37.93,117.39,32.98z"/>
</svg>
