<?xml version="1.0" encoding="utf-8"?>
<!-- Generator: Adobe Illustrator 28.1.0, SVG Export Plug-In . SVG Version: 6.00 Build 0)  -->
<svg version="1.1" id="Layer_1" xmlns="http://www.w3.org/2000/svg" xmlns:xlink="http://www.w3.org/1999/xlink" x="0px" y="0px"
	 viewBox="-1 -1 146 145.99" style="enable-background:new -1 -1 146 145.99;" xml:space="preserve">
<path fill="none" stroke="black" stroke-width="4" d="M137.82,44.33H99.67V6.18C99.67,2.77,96.9,0,93.49,0H50.51c-3.42,0-6.18,2.77-6.18,6.18v38.15H6.18
	C2.77,44.33,0,47.1,0,50.51v42.97c0,3.42,2.77,6.18,6.18,6.18h38.15v38.15c0,3.42,2.77,6.18,6.18,6.18h42.97
	c3.42,0,6.18-2.77,6.18-6.18V99.67h38.15c3.42,0,6.18-2.77,6.18-6.18V50.51C144,47.1,141.23,44.33,137.82,44.33z"/>
</svg>
