<?xml version="1.0" encoding="utf-8"?>
<!-- Generator: Adobe Illustrator 28.1.0, SVG Export Plug-In . SVG Version: 6.00 Build 0)  -->
<svg version="1.1" id="Layer_1" xmlns="http://www.w3.org/2000/svg" xmlns:xlink="http://www.w3.org/1999/xlink" x="0px" y="0px"
	 viewBox="6.93 -1.53 129.19 147.07" style="enable-background:new 6.93 -1.53 129.19 147.07;" xml:space="preserve">
<path fill="none" stroke="black" stroke-width="4" d="M73.25,1.6l4.48,56.79c0.1,1.21,1.38,1.95,2.48,1.43l51.42-24.51c1.93-0.92,3.49,1.78,1.73,3L86.42,70.57
	c-1,0.69-1,2.17,0,2.86l46.94,32.27c1.76,1.21,0.2,3.92-1.73,3L80.21,84.19c-1.1-0.52-2.38,0.22-2.48,1.43l-4.48,56.79
	c-0.17,2.13-3.29,2.13-3.46,0l-4.48-56.79c-0.1-1.21-1.38-1.95-2.48-1.43L11.42,108.7c-1.93,0.92-3.49-1.78-1.73-3l46.94-32.27
	c1-0.69,1-2.17,0-2.86L9.69,38.3c-1.76-1.21-0.2-3.92,1.73-3l51.42,24.51c1.1,0.52,2.38-0.22,2.48-1.43L69.79,1.6
	C69.96-0.53,73.08-0.53,73.25,1.6z"/>
</svg>
