<?xml version="1.0" encoding="utf-8"?>
<!-- Generator: Adobe Illustrator 28.1.0, SVG Export Plug-In . SVG Version: 6.00 Build 0)  -->
<svg version="1.1" id="Layer_1" xmlns="http://www.w3.org/2000/svg" xmlns:xlink="http://www.w3.org/1999/xlink" x="0px" y="0px"
	 viewBox="-2.14 -2.13 148.28 148.28" style="enable-background:new -2.14 -2.13 148.28 148.28;" xml:space="preserve">
<path fill="none" stroke="black" stroke-width="4" d="M76.37,3.39l12.5,48.5c0.41,1.59,1.65,2.83,3.25,3.25l48.5,12.5c4.52,1.16,4.52,7.58,0,8.74l-48.5,12.5
	c-1.59,0.41-2.83,1.65-3.25,3.25l-12.5,48.5c-1.16,4.52-7.58,4.52-8.74,0l-12.5-48.5c-0.41-1.59-1.65-2.83-3.25-3.25l-48.5-12.5
	c-4.52-1.16-4.52-7.58,0-8.74l48.5-12.5c1.59-0.41,2.83-1.65,3.25-3.25l12.5-48.5C68.79-1.13,75.21-1.13,76.37,3.39z"/>
</svg>
