<?xml version="1.0" encoding="utf-8"?>
<!-- Generator: Adobe Illustrator 28.1.0, SVG Export Plug-In . SVG Version: 6.00 Build 0)  -->
<svg version="1.1" id="Layer_1" xmlns="http://www.w3.org/2000/svg" xmlns:xlink="http://www.w3.org/1999/xlink" x="0px" y="0px"
	 viewBox="-1 -1 146 146" style="enable-background:new -1 -1 146 146;" xml:space="preserve">
<polygon fill="none" stroke="black" stroke-width="4" points="72,0 82.34,6.73 94.25,3.52 102,13.12 114.32,13.75 118.73,25.27 130.25,29.68 130.88,42 140.48,49.75 
	137.27,61.66 144,72 137.27,82.34 140.48,94.25 130.88,102 130.25,114.32 118.73,118.73 114.32,130.25 102,130.88 94.25,140.48 
	82.34,137.27 72,144 61.66,137.27 49.75,140.48 42,130.88 29.68,130.25 25.27,118.73 13.75,114.32 13.12,102 3.52,94.25 6.73,82.34 
	0,72 6.73,61.66 3.52,49.75 13.12,42 13.75,29.68 25.27,25.27 29.68,13.75 42,13.12 49.75,3.52 61.66,6.73 "/>
</svg>
