<?xml version="1.0" encoding="utf-8"?>
<!-- Generator: Adobe Illustrator 28.1.0, SVG Export Plug-In . SVG Version: 6.00 Build 0)  -->
<svg version="1.1" id="Layer_1" xmlns="http://www.w3.org/2000/svg" xmlns:xlink="http://www.w3.org/1999/xlink" x="0px" y="0px"
	 viewBox="-1.56 -1.57 147.12 147.14" style="enable-background:new -1.56 -1.57 147.12 147.14;" xml:space="preserve">
<path fill="none" stroke="black" stroke-width="4" d="M73.89,1.7l6.55,60.17c0.1,0.89,0.8,1.59,1.69,1.69l60.17,6.55c2.26,0.25,2.26,3.54,0,3.79l-60.17,6.55
	c-0.89,0.1-1.59,0.8-1.69,1.69l-6.55,60.17c-0.25,2.26-3.54,2.26-3.79,0l-6.55-60.17c-0.1-0.89-0.8-1.59-1.69-1.69L1.7,73.89
	c-2.26-0.25-2.26-3.54,0-3.79l60.17-6.55c0.89-0.1,1.59-0.8,1.69-1.69L70.11,1.7C70.35-0.57,73.65-0.57,73.89,1.7z"/>
</svg>
