<?xml version="1.0" encoding="utf-8"?>
<!-- Generator: Adobe Illustrator 28.1.0, SVG Export Plug-In . SVG Version: 6.00 Build 0)  -->
<svg version="1.1" id="Layer_1" xmlns="http://www.w3.org/2000/svg" xmlns:xlink="http://www.w3.org/1999/xlink" x="0px" y="0px"
	 viewBox="9.62 1.31 124.77 141.4" style="enable-background:new 9.62 1.31 124.77 141.4;" xml:space="preserve">
<path fill="none" stroke="black" stroke-width="4" d="M76.45,4.95l19.55,21.78c0.85,0.94,1.97,1.59,3.21,1.86l28.63,6.04c3.48,0.73,5.55,4.32,4.45,7.7l-9.09,27.82
	c-0.39,1.21-0.39,2.51,0,3.71l9.09,27.82c1.1,3.38-0.97,6.97-4.45,7.7l-28.63,6.04c-1.24,0.26-2.37,0.91-3.21,1.86l-19.55,21.78
	c-2.37,2.65-6.52,2.65-8.89,0l-19.55-21.78c-0.85-0.94-1.97-1.59-3.21-1.86l-28.63-6.04c-3.48-0.73-5.55-4.32-4.45-7.7l9.09-27.82
	c0.39-1.21,0.39-2.51,0-3.71l-9.09-27.82c-1.1-3.38,0.97-6.97,4.45-7.7l28.63-6.04c1.24-0.26,2.37-0.91,3.21-1.86L67.55,4.95
	C69.93,2.31,74.07,2.31,76.45,4.95z"/>
</svg>
