<svg xmlns="http://www.w3.org/2000/svg" viewBox="0 0 200 200">
  <path d="M45 100 Q45 70 75 60 Q100 55 125 60 Q155 70 155 100 Q155 130 125 140 Q100 145 75 140 Q45 130 45 100 Z" fill="none" stroke="black" stroke-width="3" stroke-linejoin="round"/>
  <circle cx="82" cy="85" r="4" fill="black"/>
  <circle cx="118" cy="85" r="4" fill="black"/>
  <path d="M45 85 L25 70 L12 55 L8 65 L18 78 L35 88" fill="none" stroke="black" stroke-width="2.5" stroke-linejoin="round"/>
  <path d="M155 85 L175 70 L188 55 L192 65 L182 78 L165 88" fill="none" stroke="black" stroke-width="2.5" stroke-linejoin="round"/>
  <path d="M60 135 L50 155 L45 170" fill="none" stroke="black" stroke-width="2" stroke-linecap="round"/>
  <path d="M80 142 L75 162 L72 178" fill="none" stroke="black" stroke-width="2" stroke-linecap="round"/>
  <path d="M100 145 L100 168 L100 182" fill="none" stroke="black" stroke-width="2" stroke-linecap="round"/>
  <path d="M120 142 L125 162 L128 178" fill="none" stroke="black" stroke-width="2" stroke-linecap="round"/>
  <path d="M140 135 L150 155 L155 170" fill="none" stroke="black" stroke-width="2" stroke-linecap="round"/>
  <path d="M82 60 L78 48 L72 40" fill="none" stroke="black" stroke-width="2" stroke-linecap="round"/>
  <path d="M118 60 L122 48 L128 40" fill="none" stroke="black" stroke-width="2" stroke-linecap="round"/>
</svg>
