<svg xmlns="http://www.w3.org/2000/svg" viewBox="0 0 200 200">
  <path d="M30 90 Q30 30 100 25 Q170 30 170 90 Q150 80 130 88 Q110 95 100 85 Q90 95 70 88 Q50 80 30 90 Z" fill="none" stroke="black" stroke-width="3" stroke-linejoin="round"/>
  <path d="M55 95 Q45 120 50 150 Q55 170 48 190" fill="none" stroke="black" stroke-width="2" stroke-linecap="round"/>
  <path d="M80 90 Q75 115 82 140 Q88 165 80 190" fill="none" stroke="black" stroke-width="2" stroke-linecap="round"/>
  <path d="M100 85 Q100 115 105 145 Q108 170 100 190" fill="none" stroke="black" stroke-width="2" stroke-linecap="round"/>
  <path d="M120 90 Q125 115 118 140 Q112 165 120 190" fill="none" stroke="black" stroke-width="2" stroke-linecap="round"/>
  <path d="M145 95 Q155 120 150 150 Q145 170 152 190" fill="none" stroke="black" stroke-width="2" stroke-linecap="round"/>
</svg>
