<svg xmlns="http://www.w3.org/2000/svg" viewBox="0 0 200 200">
  <path d="M35 85 Q35 25 100 20 Q165 25 165 85 Q145 75 125 82 Q105 90 100 82 Q95 90 75 82 Q55 75 35 85 Z" fill="none" stroke="black" stroke-width="3" stroke-linejoin="round"/>
  <path d="M65 90 Q55 110 60 135 Q58 155 50 175" fill="none" stroke="black" stroke-width="2.5" stroke-linecap="round"/>
  <path d="M100 82 Q95 110 100 140 Q102 165 98 185" fill="none" stroke="black" stroke-width="2.5" stroke-linecap="round"/>
  <path d="M135 90 Q145 110 140 135 Q142 155 150 175" fill="none" stroke="black" stroke-width="2.5" stroke-linecap="round"/>
  <circle cx="80" cy="50" r="5" fill="none" stroke="black" stroke-width="2"/>
  <circle cx="120" cy="50" r="5" fill="none" stroke="black" stroke-width="2"/>
</svg>
