<svg xmlns="http://www.w3.org/2000/svg" viewBox="0 0 200 200">
  <path d="M100 190 L90 160 L75 135 L55 120 L30 110 Q15 95 20 75 Q28 55 48 50 L60 55 L55 72 Q55 82 65 90 L85 100 L100 110 L115 100 L135 90 Q145 82 145 72 L140 55 L152 50 Q172 55 180 75 Q185 95 170 110 L145 120 L125 135 L110 160 L100 190 Z" fill="none" stroke="black" stroke-width="3" stroke-linejoin="round"/>
  <path d="M75 55 L65 35 L55 40" fill="none" stroke="black" stroke-width="2.5" stroke-linecap="round"/>
  <path d="M85 50 L80 30 L70 32" fill="none" stroke="black" stroke-width="2.5" stroke-linecap="round"/>
  <path d="M125 55 L135 35 L145 40" fill="none" stroke="black" stroke-width="2.5" stroke-linecap="round"/>
  <path d="M115 50 L120 30 L130 32" fill="none" stroke="black" stroke-width="2.5" stroke-linecap="round"/>
  <path d="M92 130 L88 150 L82 165" fill="none" stroke="black" stroke-width="2"/>
  <path d="M108 130 L112 150 L118 165" fill="none" stroke="black" stroke-width="2"/>
</svg>
