<svg xmlns="http://www.w3.org/2000/svg" viewBox="0 0 200 200">
  <path d="M60 185 Q55 170 50 150 L40 130 L25 120 Q10 110 8 90 Q8 70 20 55 Q35 42 55 45 L65 50 Q58 62 60 75 Q62 88 75 95 L90 100 L100 115 L110 100 L125 95 Q138 88 140 75 Q142 62 135 50 L145 45 Q165 42 180 55 Q192 70 192 90 Q190 110 175 120 L160 130 L150 150 Q145 170 140 185" fill="none" stroke="black" stroke-width="3" stroke-linejoin="round"/>
  <circle cx="80" cy="55" r="3" fill="black"/>
  <circle cx="120" cy="55" r="3" fill="black"/>
</svg>
