<svg xmlns="http://www.w3.org/2000/svg" viewBox="0 0 200 200">
  <path d="M180 95 Q165 85 145 80 L120 75 L100 68 L85 55 L68 48 Q50 45 35 55 Q20 68 18 88 Q20 108 35 118 L55 120 L72 112 L80 118 L75 140 L68 160 L78 165 L88 145 L95 130 L105 135 L108 158 L118 160 L115 140 Q118 125 125 115 L145 108 L165 102 L180 95 Z" fill="none" stroke="black" stroke-width="3" stroke-linejoin="round"/>
  <circle cx="38" cy="70" r="3.5" fill="black"/>
  <path d="M18 42 L30 50 L22 38" fill="none" stroke="black" stroke-width="2" stroke-linecap="round"/>
  <path d="M28 42 L38 48" fill="none" stroke="black" stroke-width="2" stroke-linecap="round"/>
</svg>
