<svg xmlns="http://www.w3.org/2000/svg" viewBox="0 0 200 200">
  <path d="M25 140 Q25 130 35 125 Q50 118 70 120 L100 125 L130 120 Q150 118 165 125 Q175 130 175 140 Q175 155 160 165 Q140 175 100 178 Q60 175 40 165 Q25 155 25 140 Z" fill="none" stroke="black" stroke-width="3" stroke-linejoin="round"/>
  <path d="M38 128 Q55 115 75 112 Q88 110 100 112 Q112 110 125 112 Q145 115 162 128" fill="none" stroke="black" stroke-width="2.5" stroke-linejoin="round"/>
  <line x1="55" y1="115" x2="50" y2="160" stroke="black" stroke-width="1.5"/>
  <line x1="75" y1="112" x2="72" y2="170" stroke="black" stroke-width="1.5"/>
  <line x1="100" y1="112" x2="100" y2="175" stroke="black" stroke-width="1.5"/>
  <line x1="125" y1="112" x2="128" y2="170" stroke="black" stroke-width="1.5"/>
  <line x1="145" y1="115" x2="150" y2="160" stroke="black" stroke-width="1.5"/>
</svg>
