<?xml version="1.0" encoding="utf-8"?>
<!-- Generator: Adobe Illustrator 28.1.0, SVG Export Plug-In . SVG Version: 6.00 Build 0)  -->
<svg version="1.1" id="Layer_1" xmlns="http://www.w3.org/2000/svg" xmlns:xlink="http://www.w3.org/1999/xlink" x="0px" y="0px"
	 viewBox="-2.29 0.3 148.56 144.92" style="enable-background:new -2.29 0.3 148.56 144.92;" xml:space="preserve">
<path fill="none" stroke="black" stroke-width="4" d="M76.21,4.81l13.5,27.62c0.95,1.95,3.11,2.99,5.23,2.52l30.01-6.66c3.81-0.85,6.93,3.06,5.25,6.59l-13.18,27.78
	c-0.93,1.96-0.39,4.3,1.29,5.66l23.92,19.31c3.04,2.45,1.93,7.32-1.87,8.21l-29.93,7.02c-2.11,0.49-3.61,2.37-3.62,4.54l-0.18,30.75
	c-0.02,3.9-4.53,6.07-7.59,3.66L74.9,122.77c-1.7-1.34-4.1-1.34-5.8,0l-24.15,19.03c-3.07,2.42-7.57,0.25-7.59-3.66l-0.18-30.75
	c-0.01-2.17-1.51-4.04-3.62-4.54L3.62,95.84c-3.8-0.89-4.91-5.76-1.87-8.21l23.92-19.31c1.69-1.36,2.22-3.7,1.29-5.66L13.79,34.87
	c-1.67-3.53,1.44-7.43,5.25-6.59l30.01,6.66c2.12,0.47,4.28-0.57,5.23-2.52l13.5-27.62C69.5,1.3,74.5,1.3,76.21,4.81z"/>
</svg>
