<?xml version="1.0" encoding="utf-8"?>
<!-- Generator: Adobe Illustrator 28.1.0, SVG Export Plug-In . SVG Version: 6.00 Build 0)  -->
<svg version="1.1" id="Layer_1" xmlns="http://www.w3.org/2000/svg" xmlns:xlink="http://www.w3.org/1999/xlink" x="0px" y="0px"
	 viewBox="6.71 -1.84 130.59 147.68" style="enable-background:new 6.71 -1.84 130.59 147.68;" xml:space="preserve">
<path fill="none" stroke="black" stroke-width="4" d="M76.36,2.52l16.43,28.45c0.9,1.56,2.56,2.52,4.36,2.52H130c3.87,0,6.29,4.19,4.36,7.55l-16.43,28.45
	c-0.9,1.56-0.9,3.47,0,5.03l16.43,28.45c1.94,3.35-0.48,7.55-4.36,7.55H97.14c-1.8,0-3.46,0.96-4.36,2.52l-16.43,28.45
	c-1.94,3.35-6.78,3.35-8.71,0l-16.43-28.45c-0.9-1.56-2.56-2.52-4.36-2.52H14c-3.87,0-6.29-4.19-4.36-7.55l16.43-28.45
	c0.9-1.56,0.9-3.47,0-5.03L9.65,41.03c-1.94-3.35,0.48-7.55,4.36-7.55h32.86c1.8,0,3.46-0.96,4.36-2.52L67.64,2.52
	C69.58-0.84,74.42-0.84,76.36,2.52z"/>
</svg>
