<?xml version="1.0" encoding="utf-8"?>
<!-- Generator: Adobe Illustrator 28.1.0, SVG Export Plug-In . SVG Version: 6.00 Build 0)  -->
<svg version="1.1" id="Layer_1" xmlns="http://www.w3.org/2000/svg" xmlns:xlink="http://www.w3.org/1999/xlink" x="0px" y="0px"
	 viewBox="-1 -1.4 146 146.81" style="enable-background:new -1 -1.4 146 146.81;" xml:space="preserve">
<polygon fill="none" stroke="black" stroke-width="4" points="72,-0.4 78.95,5.91 87.05,1.19 92.53,8.8 101.45,5.86 105.23,14.45 114.55,13.43 116.46,22.62 125.8,23.56 
	125.76,32.94 134.7,35.8 132.71,44.97 140.85,49.63 137,58.18 144,64.43 138.45,72 144,79.57 137,85.82 140.85,94.37 132.71,99.03 
	134.7,108.2 125.76,111.06 125.8,120.44 116.46,121.38 114.55,130.57 105.23,129.55 101.45,138.14 92.53,135.2 87.05,142.81 
	78.95,138.09 72,144.4 65.05,138.09 56.95,142.81 51.47,135.2 42.55,138.14 38.77,129.55 29.45,130.57 27.54,121.38 18.2,120.44 
	18.24,111.06 9.3,108.2 11.29,99.03 3.15,94.37 7,85.82 0,79.57 5.55,72 0,64.43 7,58.18 3.15,49.63 11.29,44.97 9.3,35.8 
	18.24,32.94 18.2,23.56 27.54,22.62 29.45,13.43 38.77,14.45 42.55,5.86 51.47,8.8 56.95,1.19 65.05,5.91 "/>
</svg>
