<?xml version="1.0" encoding="utf-8"?>
<!-- Generator: Adobe Illustrator 28.1.0, SVG Export Plug-In . SVG Version: 6.00 Build 0)  -->
<svg version="1.1" id="Layer_1" xmlns="http://www.w3.org/2000/svg" xmlns:xlink="http://www.w3.org/1999/xlink" x="0px" y="0px"
	 viewBox="-2.3 2.41 148.62 141.43" style="enable-background:new -2.3 2.41 148.62 141.43;" xml:space="preserve">
<path fill="none" stroke="black" stroke-width="4" d="M75.84,6.72l17.77,39.69c0.61,1.37,1.9,2.3,3.39,2.46l43.24,4.64c3.61,0.39,5.07,4.86,2.37,7.3l-32.25,29.17
	c-1.11,1-1.6,2.52-1.29,3.98l8.95,42.55c0.75,3.55-3.06,6.32-6.21,4.51l-37.71-21.66c-1.3-0.75-2.89-0.75-4.19,0L32.2,141.03
	c-3.15,1.81-6.96-0.96-6.21-4.51l8.95-42.55c0.31-1.46-0.19-2.98-1.29-3.98L1.39,60.81c-2.69-2.44-1.24-6.91,2.37-7.3L47,48.87
	c1.49-0.16,2.78-1.1,3.39-2.46L68.16,6.72C69.65,3.41,74.35,3.41,75.84,6.72z"/>
</svg>
