<?xml version="1.0" encoding="utf-8"?>
<!-- Generator: Adobe Illustrator 28.1.0, SVG Export Plug-In . SVG Version: 6.00 Build 0)  -->
<svg version="1.1" id="Layer_1" xmlns="http://www.w3.org/2000/svg" xmlns:xlink="http://www.w3.org/1999/xlink" x="0px" y="0px"
	 viewBox="-2.66 2.5 149.3 142.07" style="enable-background:new -2.66 2.5 149.3 142.07;" xml:space="preserve">
<path fill="none" stroke="black" stroke-width="4" d="M76.23,7.61l13.95,42.92c0.6,1.83,2.3,3.07,4.23,3.07h45.13c4.31,0,6.1,5.52,2.62,8.05l-36.51,26.53
	c-1.56,1.13-2.21,3.14-1.62,4.97l13.95,42.92c1.33,4.1-3.36,7.51-6.85,4.97l-36.51-26.53c-1.56-1.13-3.67-1.13-5.23,0l-36.51,26.53
	c-3.49,2.53-8.18-0.88-6.85-4.97l13.95-42.92c0.6-1.83-0.06-3.84-1.62-4.97L1.84,61.65c-3.49-2.53-1.69-8.05,2.62-8.05h45.13
	c1.93,0,3.64-1.24,4.23-3.07L67.77,7.61C69.1,3.51,74.9,3.51,76.23,7.61z"/>
</svg>
