<?xml version="1.0" encoding="utf-8"?>
<!-- Generator: Adobe Illustrator 28.1.0, SVG Export Plug-In . SVG Version: 6.00 Build 0)  -->
<svg version="1.1" id="Layer_1" xmlns="http://www.w3.org/2000/svg" xmlns:xlink="http://www.w3.org/1999/xlink" x="0px" y="0px"
	 viewBox="-1 -1 146 146" style="enable-background:new -1 -1 146 146;" xml:space="preserve">
<polygon fill="none" stroke="black" stroke-width="4" points="72,9.24 83.4,0 91.39,12.31 105.09,7.05 108.89,21.23 123.55,20.45 122.77,35.11 136.95,38.91 131.69,52.61 
	144,60.6 134.76,72 144,83.4 131.69,91.39 136.95,105.09 122.77,108.89 123.55,123.55 108.89,122.77 105.09,136.95 91.39,131.69 
	83.4,144 72,134.76 60.6,144 52.61,131.69 38.91,136.95 35.11,122.77 20.45,123.55 21.23,108.89 7.05,105.09 12.31,91.39 0,83.4 
	9.24,72 0,60.6 12.31,52.61 7.05,38.91 21.23,35.11 20.45,20.45 35.11,21.23 38.91,7.05 52.61,12.31 60.6,0 "/>
</svg>
