<?xml version="1.0" encoding="utf-8"?>
<!-- Generator: Adobe Illustrator 28.1.0, SVG Export Plug-In . SVG Version: 6.00 Build 0)  -->
<svg version="1.1" id="Layer_1" xmlns="http://www.w3.org/2000/svg" xmlns:xlink="http://www.w3.org/1999/xlink" x="0px" y="0px"
	 viewBox="-1.71 -1.71 147.43 147.43" style="enable-background:new -1.71 -1.71 147.43 147.43;" xml:space="preserve">
<path fill="none" stroke="black" stroke-width="4" d="M77.14,2.13l14.7,14.7c1.36,1.36,3.21,2.13,5.14,2.13h20.8c4.01,0,7.27,3.25,7.27,7.27v20.8c0,1.93,0.77,3.77,2.13,5.14
	l14.7,14.7c2.84,2.84,2.84,7.44,0,10.27l-14.7,14.7c-1.36,1.36-2.13,3.21-2.13,5.14v20.8c0,4.01-3.25,7.27-7.27,7.27h-20.8
	c-1.93,0-3.77,0.77-5.14,2.13l-14.7,14.7c-2.84,2.84-7.44,2.84-10.27,0l-14.7-14.7c-1.36-1.36-3.21-2.13-5.14-2.13h-20.8
	c-4.01,0-7.27-3.25-7.27-7.27v-20.8c0-1.93-0.77-3.77-2.13-5.14l-14.7-14.7c-2.84-2.84-2.84-7.44,0-10.27l14.7-14.7
	c1.36-1.36,2.13-3.21,2.13-5.14v-20.8c0-4.01,3.25-7.27,7.27-7.27h20.8c1.93,0,3.77-0.77,5.14-2.13l14.7-14.7
	C69.7-0.71,74.3-0.71,77.14,2.13z"/>
</svg>
