<?xml version="1.0" encoding="utf-8"?>
<!-- Generator: Adobe Illustrator 28.1.0, SVG Export Plug-In . SVG Version: 6.00 Build 0)  -->
<svg version="1.1" id="Layer_1" xmlns="http://www.w3.org/2000/svg" xmlns:xlink="http://www.w3.org/1999/xlink" x="0px" y="0px"
	 viewBox="-1.61 -1.62 147.22 147.23" style="enable-background:new -1.61 -1.62 147.22 147.23;" xml:space="preserve">
<path fill="none" stroke="black" stroke-width="4" d="M74.3,1.86l8.51,38.97c0.35,1.61,2.19,2.37,3.58,1.48l33.58-21.54c2.13-1.37,4.63,1.13,3.26,3.26L101.69,57.6
	c-0.89,1.38-0.12,3.23,1.48,3.58l38.97,8.51c2.47,0.54,2.47,4.07,0,4.61l-38.97,8.51c-1.61,0.35-2.37,2.19-1.48,3.58l21.54,33.58
	c1.37,2.13-1.13,4.63-3.26,3.26L86.4,101.69c-1.38-0.89-3.23-0.12-3.58,1.48l-8.51,38.97c-0.54,2.47-4.07,2.47-4.61,0l-8.51-38.97
	c-0.35-1.61-2.19-2.37-3.58-1.48l-33.58,21.54c-2.13,1.37-4.63-1.13-3.26-3.26L42.31,86.4c0.89-1.38,0.12-3.23-1.48-3.58L1.86,74.3
	c-2.47-0.54-2.47-4.07,0-4.61l38.97-8.51c1.61-0.35,2.37-2.19,1.48-3.58L20.77,24.03c-1.37-2.13,1.13-4.63,3.26-3.26L57.6,42.31
	c1.38,0.89,3.23,0.12,3.58-1.48L69.7,1.86C70.24-0.62,73.76-0.62,74.3,1.86z"/>
</svg>
