<?xml version="1.0" encoding="utf-8"?>
<!-- Generator: Adobe Illustrator 28.1.0, SVG Export Plug-In . SVG Version: 6.00 Build 0)  -->
<svg version="1.1" id="Layer_1" xmlns="http://www.w3.org/2000/svg" xmlns:xlink="http://www.w3.org/1999/xlink" x="0px" y="0px"
	 viewBox="-1.4 -1 146.81 146" style="enable-background:new -1.4 -1 146.81 146;" xml:space="preserve">
<polygon fill="none" stroke="black" stroke-width="4" points="72,59.66 79.57,0 74.57,59.93 94.37,3.15 77.02,60.73 108.2,9.3 79.25,62.02 120.44,18.2 81.17,63.74 130.57,29.45 
	82.69,65.83 138.14,42.55 83.74,68.19 142.81,56.95 84.27,70.71 144.4,72 84.27,73.29 142.81,87.05 83.74,75.81 138.14,101.45 
	82.69,78.17 130.57,114.55 81.17,80.26 120.44,125.8 79.25,81.98 108.2,134.7 77.02,83.27 94.37,140.85 74.57,84.07 79.57,144 
	72,84.34 64.43,144 69.43,84.07 49.63,140.85 66.98,83.27 35.8,134.7 64.75,81.98 23.56,125.8 62.83,80.26 13.43,114.55 
	61.31,78.17 5.86,101.45 60.26,75.81 1.19,87.05 59.73,73.29 -0.4,72 59.73,70.71 1.19,56.95 60.26,68.19 5.86,42.55 61.31,65.83 
	13.43,29.45 62.83,63.74 23.56,18.2 64.75,62.02 35.8,9.3 66.98,60.73 49.63,3.15 69.43,59.93 64.43,0 "/>
</svg>
