<?xml version="1.0" encoding="utf-8"?>
<!-- Generator: Adobe Illustrator 28.1.0, SVG Export Plug-In . SVG Version: 6.00 Build 0)  -->
<svg version="1.1" id="Layer_1" xmlns="http://www.w3.org/2000/svg" xmlns:xlink="http://www.w3.org/1999/xlink" x="0px" y="0px"
	 viewBox="-1.4 -1 146.81 146" style="enable-background:new -1.4 -1 146.81 146;" xml:space="preserve">
<polygon fill="none" stroke="black" stroke-width="4" points="72,67.78 79.57,0 72.88,67.87 94.37,3.15 73.72,68.14 108.2,9.3 74.48,68.58 120.44,18.2 75.14,69.18 130.57,29.45 
	75.66,69.89 138.14,42.55 76.01,70.7 142.81,56.95 76.2,71.56 144.4,72 76.2,72.44 142.81,87.05 76.01,73.3 138.14,101.45 
	75.66,74.11 130.57,114.55 75.14,74.82 120.44,125.8 74.48,75.42 108.2,134.7 73.72,75.86 94.37,140.85 72.88,76.13 79.57,144 
	72,76.22 64.43,144 71.12,76.13 49.63,140.85 70.28,75.86 35.8,134.7 69.52,75.42 23.56,125.8 68.86,74.82 13.43,114.55 
	68.34,74.11 5.86,101.45 67.99,73.3 1.19,87.05 67.8,72.44 -0.4,72 67.8,71.56 1.19,56.95 67.99,70.7 5.86,42.55 68.34,69.89 
	13.43,29.45 68.86,69.18 23.56,18.2 69.52,68.58 35.8,9.3 70.28,68.14 49.63,3.15 71.12,67.87 64.43,0 "/>
</svg>
