<?xml version="1.0" encoding="utf-8"?>
<!-- Generator: Adobe Illustrator 28.1.0, SVG Export Plug-In . SVG Version: 6.00 Build 0)  -->
<svg version="1.1" id="Layer_1" xmlns="http://www.w3.org/2000/svg" xmlns:xlink="http://www.w3.org/1999/xlink" x="0px" y="0px"
	 viewBox="-2.18 -0.05 148.34 144.66" style="enable-background:new -2.18 -0.05 148.34 144.66;" xml:space="preserve">
<path fill="none" stroke="black" stroke-width="4" d="M74.74,4.05l7.59,44.78c0.32,1.89,2.41,2.9,4.09,1.97l39.75-21.99c2.74-1.52,5.5,1.95,3.42,4.29L99.3,66.95
	c-1.28,1.43-0.76,3.69,1.01,4.42l41.97,17.36c2.89,1.2,1.91,5.52-1.22,5.34l-45.35-2.57c-1.91-0.11-3.36,1.71-2.83,3.55l12.59,43.64
	c0.87,3.01-3.13,4.93-4.94,2.38l-26.27-37.06c-1.11-1.56-3.43-1.56-4.54,0l-26.27,37.06c-1.81,2.55-5.81,0.63-4.94-2.38l12.59-43.64
	c0.53-1.84-0.92-3.65-2.83-3.55L2.94,94.08c-3.13,0.18-4.11-4.15-1.22-5.34l41.97-17.36c1.77-0.73,2.29-2.99,1.01-4.42L14.42,33.1
	c-2.09-2.33,0.68-5.8,3.42-4.29L57.58,50.8c1.68,0.93,3.77-0.08,4.09-1.97l7.59-44.78C69.78,0.96,74.22,0.96,74.74,4.05z"/>
</svg>
